# xmcd
#
# Track frame offsets: 
#        150
#        15199
#        45431
#        66016
#        95959
#        111362
#        130937
#        148212
#        168941
#        182762
#        208673
#        235738
#        255893
#        277774
#        286987
#        303397
#        327873
#
# Disc length: 4793 seconds
#
# Revision: 2
# Processed by: cddbd v1.5.2PL0 Copyright (c) Steve Scherf et al.
# Submitted via: ExactAudioCopy v0.99pb5
#
DISCID=ea12b711
DTITLE=Various Artist - Sci-Fi Hi-Fi: 04
DYEAR=2008
DGENRE=Techno/House
TTITLE0=Itamar Sagi - Black Gold (Original Mix)
TTITLE1=Beroshima - Horizon (Funk D'Void's Hope Mix)
TTITLE2=Alex Moran - Earth Women Are Easy
TTITLE3=Joel Mull - Klangfarben
TTITLE4=Lusine - Drip (Apparat Remix)
TTITLE5=Cloud - Those Days (Jimpsters Deep Dub Mix)
TTITLE6=Quince - New Era
TTITLE7=Vector Lovers - Melodies and Memory
TTITLE8=H-Foundation - Tonight (King Britt Remix)
TTITLE9=Dirt Crew - Deep (Francois Dubois Remix)
TTITLE10=Ski Oakenfull - Illuminations (Milton Jackson Remix)
TTITLE11=Ozy - Sequential Dub
TTITLE12=Giles Smith Presents Two Armadillos - Track 5
TTITLE13=Sian - R U Aware
TTITLE14=Blakkat - Deeper
TTITLE15=Artec - Communikate
TTITLE16=Vincenzo - The Resident
EXTD=YEAR: 2008
EXTT0=
EXTT1=
EXTT2=
EXTT3=
EXTT4=
EXTT5=
EXTT6=
EXTT7=
EXTT8=
EXTT9=
EXTT10=
EXTT11=
EXTT12=
EXTT13=
EXTT14=
EXTT15=
EXTT16=
PLAYORDER=
